<svg id="Logo" xmlns="http://www.w3.org/2000/svg" xmlns:xlink="http://www.w3.org/1999/xlink" width="640.003" height="640.003" viewBox="0 0 652 652">
  <defs>
    <style>
      .cls-1, .cls-2 {
        fill: #f0f4f5;
        fill-rule: evenodd;
      }

      .cls-1 {
        filter: url(#filter);
      }

      .cls-2 {
        filter: url(#filter-2);
      }
    </style>
    <filter id="filter" x="10" y="209" width="640" height="189" filterUnits="userSpaceOnUse">
      <feOffset result="offset" dy="5" in="SourceAlpha"/>
      <feGaussianBlur result="blur" stdDeviation="4.583"/>
      <feFlood result="flood"/>
      <feComposite result="composite" operator="in" in2="blur"/>
      <feBlend result="blend" in="SourceGraphic"/>
    </filter>
    <filter id="filter-2" x="3" y="364" width="570" height="90" filterUnits="userSpaceOnUse">
      <feOffset result="offset" dy="5" in="SourceAlpha"/>
      <feGaussianBlur result="blur" stdDeviation="4.583"/>
      <feFlood result="flood"/>
      <feComposite result="composite" operator="in" in2="blur"/>
      <feBlend result="blend" in="SourceGraphic"/>
    </filter>
  </defs>
  <path id="MM" class="cls-1" d="M127.319,313.211l8.325-34.409-1.3,29.045-2.59,61.6h48.654l56.425-54.76L259.592,287.5l-17.574,32-26.825,49.95h64.564l76.774-142.818H257.742l-44.584,50.689,0.185-.185-34.78,39.219,17.76-30.339,11.47-59.384h-98.6L74.225,256.417h18.87L32.415,369.451H96.98Zm270.1,0,8.324-34.409-1.3,29.045-2.59,61.6h48.655l56.424-54.76L529.691,287.5l-17.575,32-26.825,49.95h64.565L626.63,226.633H527.841l-44.585,50.689,0.185-.185-34.779,39.219,17.76-30.339,11.469-59.384h-98.6l-34.965,29.784h18.87L302.514,369.451h64.564Z"/>
  <path id="Matamaps" class="cls-2" d="M54.613,408.039l2.565-10.6-0.4,8.95-0.8,18.981H70.972L88.358,408.5l7.011-8.38-5.415,9.862-8.265,15.39h19.893l23.656-44H94.8L81.062,396.98l0.057-.057L70.4,409.008l5.472-9.349,3.534-18.3H49.026l-10.773,9.177h5.814l-18.7,34.828H45.264Zm98.1-13.4-2,19.438,10.716,2.166-10.887-.057H139.086l-10.773,9.177h41.155l4.5-44h-31.3L131.9,390.539h4.9l-33.859,34.828h19.894Zm43.947,30.724,17.613-32.719h-0.057l-10.716-2,11.913-.114h1.083l3.192-.057-0.057.057h7.981l1.767-3.306,3.192-5.871h-44.4l-10.773,9.177h18.069l-18.7,34.828h19.894Zm56.829-30.724-1.995,19.438,10.716,2.166-10.887-.057H239.862l-10.773,9.177h41.156l4.5-44H243.454l-10.774,9.177h4.9l-33.859,34.828h19.894Zm46.227,13.4,2.565-10.6-0.4,8.95-0.8,18.981h14.991L333.458,408.5l7.011-8.38-5.415,9.862-8.265,15.39h19.894l23.656-44H339.9L326.162,396.98l0.057-.057L315.5,409.008l5.473-9.349,3.534-18.3H294.127l-10.774,9.177h5.814l-18.7,34.828h19.893Zm98.1-13.4-2,19.438,10.716,2.166-10.887-.057H384.186l-10.773,9.177h41.156l4.5-44h-31.3L377,390.539h4.9l-33.859,34.828h19.894Zm44.061-4.161c8.037-.057,15.618-0.057,23.485-0.057l0.912,2.052-0.456.912-0.342.627-2.737,5.073-3.135,2.052H447.742l4.617-8.664Zm-3.421-9.12-10.773,9.177h5.814c-6.213,11.628-12.483,23.2-18.7,34.828h19.893l7.24-13.452-6.9-1.767h34.259l11.286-7.354,4.731-8.778,0.342-.627,2.508-4.674-3.42-7.353H438.45ZM487.185,399.2l31.351,9.52-4.275,5.415,10.659,2c-8.892.057-17.271,0.057-26.05,0.057L499.5,413.4l2.28-4.275H481.884l-2.508,4.731-2.509,11.514H528.4l7.981-11.514,4.56-12.085-30.268-8.892,0.285-.4-9.919-1.881c8.209-.057,16.018-0.057,24.112-0.057l-0.627,2.793h19.894l4.9-11.97h-52.5l-10.773,9.177h6.726l-0.456.513-1.938,2.223Z"/>
</svg>
